Coordinates
version=1
nRows=14
nColumns=24
inDegrees=yes

Units are S.I. units (second, meters, Newtons, ...)
Angles are in degrees.

endheader
time	pelvis_tilt	pelvis_list	pelvis_rotation	pelvis_tx	pelvis_ty	pelvis_tz	hip_flexion_r	hip_adduction_r	hip_rotation_r	knee_angle_r	ankle_angle_r	subtalar_angle_r	mtp_angle_r	hip_flexion_l	hip_adduction_l	hip_rotation_l	knee_angle_l	ankle_angle_l	subtalar_angle_l	mtp_angle_l	lumbar_extension	lumbar_bending	lumbar_rotation
      0.68700000	      7.39543602	     -5.11005113	      3.07681584	     -0.47439329	      1.01134078	      0.30888481	      1.23821050	     10.78978692	     -1.08434843	    -15.09390362	      4.69596187	    -17.91275483	     -8.29814644	     12.40410992	     -5.79330537	      0.80784473	    -70.15675146	     -8.40740293	     -7.87411453	      3.15444844	     -9.22998204	      9.50851257	      3.46899754
      0.69116667	      7.41077168	     -4.94140419	      3.06592766	     -0.46906513	      1.01226216	      0.30904212	      0.62464635	     10.63967350	     -0.99871687	    -14.63750757	      4.76207521	    -17.88367167	     -8.31966407	     13.00086916	     -5.53527852	      0.86507232	    -69.91710961	     -7.80564694	     -8.16032044	      3.10868218	     -9.25841838	      9.30545916	      3.52259092
      0.69533333	      7.49313574	     -4.76453485	      3.05377163	     -0.46371732	      1.01324868	      0.30919437	     -0.08977534	     10.48589269	     -0.87767623	    -14.12567215	      4.79822517	    -17.86932739	     -8.36940080	     13.49154478	     -5.27495441	      0.90623556	    -69.58855026	     -7.25427138	     -8.43724840	      3.00143964	     -9.36406753	      9.10686621	      3.62548417
      0.69950000	      7.54748121	     -4.58616654	      3.01928321	     -0.45837971	      1.01415595	      0.30936684	     -0.75706113	     10.32514921	     -0.75221827	    -13.64920825	      4.85334720	    -17.85130766	     -8.42412553	     13.99121480	     -5.01929504	      0.91658712	    -69.19963954	     -6.67826910	     -8.71293195	      2.89000835	     -9.43743715	      8.89804260	      3.72872498
      0.70366667	      7.56115462	     -4.42047961	      2.96550307	     -0.45304942	      1.01495328	      0.30955642	     -1.36106792	     10.17139696	     -0.63748954	    -13.21036077	      4.91667719	    -17.81953960	     -8.45920088	     14.51858928	     -4.78366176	      0.89981382	    -68.76030936	     -6.07316133	     -9.00024935	      2.82278575	     -9.46363824	      8.68931365	      3.81059458
      0.70783333	      7.60444979	     -4.23898738	      2.89894097	     -0.44771060	      1.01575887	      0.30975765	     -2.00323842	      9.99888618	     -0.50707165	    -12.76179326	      4.97762761	    -17.77953722	     -8.49661786	     14.97929499	     -4.53593547	      0.86490554	    -68.23923848	     -5.49550407	     -9.28018320	      2.75161720	     -9.52446075	      8.47616100	      3.91827507
      0.71200000	      7.67078622	     -4.06067445	      2.83603944	     -0.44238945	      1.01654532	      0.30994245	     -2.68110074	      9.83158951	     -0.34328308	    -12.28759636	      5.04021103	    -17.75155638	     -8.56745781	     15.39574688	     -4.29315999	      0.83022958	    -67.65379339	     -4.96588576	     -9.54878189	      2.61391643	     -9.63121611	      8.27288391	      4.09759188
      0.71616667	      7.66547513	     -3.89956043	      2.73678155	     -0.43707078	      1.01716234	      0.31016043	     -3.24167144	      9.66865709	     -0.21073832	    -11.89337158	      5.11050899	    -17.70657576	     -8.60704060	     15.87198124	     -4.08070615	      0.75155501	    -67.02874790	     -4.36139770	     -9.81237878	      2.53947121	     -9.63619651	      8.07640138	      4.19255765
      0.72033333	      7.70382254	     -3.72758227	      2.63631468	     -0.43176886	      1.01778802	      0.31037878	     -3.85864321	      9.49495458	     -0.05339388	    -11.47796858	      5.17981864	    -17.64349191	     -8.64995173	     16.27428683	     -3.85986481	      0.66842761	    -66.33415604	     -3.79691313	    -10.07691264	      2.45472272	     -9.71516344	      7.86887907	      4.32726981
      0.72450000	      7.73222937	     -3.56093738	      2.52717713	     -0.42644493	      1.01835634	      0.31059995	     -4.46250426	      9.32141151	      0.09138890	    -11.06641892	      5.25285586	    -17.57777640	     -8.70176624	     16.66194724	     -3.65404857	      0.56411579	    -65.57565180	     -3.26338191	    -10.32966757	      2.34773111	     -9.76371324	      7.66829525	      4.49239652
      0.72866667	      7.77102849	     -3.39898475	      2.40779665	     -0.42114006	      1.01888110	      0.31082923	     -5.06846812	      9.14927082	      0.24026625	    -10.66922958	      5.33097871	    -17.50296389	     -8.75306377	     17.01611202	     -3.45783007	      0.45001174	    -64.76165643	     -2.73532558	    -10.57383774	      2.23654781	     -9.83587428	      7.47394168	      4.65272938
      0.73283333	      7.81473226	     -3.26120150	      2.31090936	     -0.41582834	      1.01932634	      0.31104293	     -5.69148670	      9.00477479	      0.38232931	    -10.24039158	      5.41785472	    -17.41766835	     -8.83676260	     17.35708415	     -3.29148886	      0.35180001	    -63.90822247	     -2.25851714	    -10.79904952	      2.04545584	     -9.91322591	      7.28854603	      4.87901443
      0.73700000	      7.80468031	     -3.11372562	      2.16280209	     -0.41054535	      1.01964524	      0.31128772	     -6.20918950	      8.83390019	      0.52745810	     -9.90841405	      5.49350531	    -17.32483663	     -8.88529925	     17.72461096	     -3.11945621	      0.21215168	    -62.99560368	     -1.73704414	    -11.02009580	      1.92841142	     -9.92878612	      7.12325376	      4.99177854
      0.74116667	      7.79546127	     -3.00217723	      2.03934481	     -0.40526711	      1.01987944	      0.31151302	     -6.74192912	      8.70718915	      0.68874751	     -9.54596806	      5.69386406	    -17.22114262	    -10.24568126	     18.08981259	     -2.98632183	      0.09443698	    -62.06171190	     -1.22985705	    -11.20304454	     -1.43546871	     -9.95188964	      6.97686410	      5.28415582
